<svg width="123" height="23" viewBox="0 0 123 23" fill="none" xmlns="http://www.w3.org/2000/svg">
<path d="M5.49191 12.132L9.27191 18H12.3139L8.20991 12.132H5.49191ZM2.62991 5.4V18H5.20391V5.4H2.62991ZM4.19591 7.596H6.69791C7.15391 7.596 7.54391 7.674 7.86791 7.83C8.20391 7.974 8.46191 8.19 8.64191 8.478C8.82191 8.754 8.91191 9.09 8.91191 9.486C8.91191 9.882 8.82191 10.224 8.64191 10.512C8.46191 10.788 8.20391 11.004 7.86791 11.16C7.54391 11.304 7.15391 11.376 6.69791 11.376H4.19591V13.428H6.85991C7.85591 13.428 8.70191 13.26 9.39791 12.924C10.0939 12.588 10.6279 12.12 10.9999 11.52C11.3719 10.908 11.5579 10.206 11.5579 9.414C11.5579 8.61 11.3719 7.908 10.9999 7.308C10.6279 6.708 10.0939 6.24 9.39791 5.904C8.70191 5.568 7.85591 5.4 6.85991 5.4H4.19591V7.596ZM17.842 18.18C18.838 18.18 19.69 17.988 20.398 17.604C21.118 17.208 21.694 16.62 22.126 15.84L20.092 15.21C19.852 15.606 19.546 15.906 19.174 16.11C18.814 16.302 18.376 16.398 17.86 16.398C17.404 16.398 17.014 16.296 16.69 16.092C16.366 15.888 16.12 15.594 15.952 15.21C15.796 14.826 15.718 14.358 15.718 13.806C15.73 13.23 15.814 12.75 15.97 12.366C16.138 11.97 16.372 11.676 16.672 11.484C16.984 11.28 17.368 11.178 17.824 11.178C18.196 11.178 18.52 11.262 18.796 11.43C19.072 11.598 19.282 11.826 19.426 12.114C19.582 12.402 19.66 12.75 19.66 13.158C19.66 13.242 19.636 13.35 19.588 13.482C19.552 13.602 19.51 13.698 19.462 13.77L20.092 12.942H14.71V14.382H22.126C22.138 14.31 22.144 14.214 22.144 14.094C22.156 13.974 22.162 13.86 22.162 13.752C22.162 12.864 21.994 12.108 21.658 11.484C21.322 10.848 20.83 10.368 20.182 10.044C19.546 9.708 18.772 9.54 17.86 9.54C16.948 9.54 16.156 9.72 15.484 10.08C14.812 10.428 14.29 10.926 13.918 11.574C13.558 12.21 13.378 12.972 13.378 13.86C13.378 14.736 13.558 15.498 13.918 16.146C14.29 16.782 14.812 17.28 15.484 17.64C16.156 18 16.942 18.18 17.842 18.18ZM25.9364 15.426C25.9364 15.186 25.9904 14.988 26.0984 14.832C26.2064 14.664 26.3744 14.538 26.6024 14.454C26.8304 14.358 27.1244 14.31 27.4844 14.31C27.9284 14.31 28.3484 14.37 28.7444 14.49C29.1524 14.61 29.5184 14.79 29.8424 15.03V13.95C29.7224 13.806 29.5244 13.656 29.2484 13.5C28.9724 13.344 28.6304 13.212 28.2224 13.104C27.8264 12.996 27.3644 12.942 26.8364 12.942C25.8044 12.942 25.0064 13.176 24.4424 13.644C23.8784 14.112 23.5964 14.748 23.5964 15.552C23.5964 16.116 23.7284 16.596 23.9924 16.992C24.2684 17.376 24.6284 17.67 25.0724 17.874C25.5164 18.078 25.9964 18.18 26.5124 18.18C27.0164 18.18 27.4964 18.09 27.9524 17.91C28.4204 17.73 28.7984 17.46 29.0864 17.1C29.3864 16.74 29.5364 16.296 29.5364 15.768L29.2484 14.688C29.2484 15.084 29.1584 15.426 28.9784 15.714C28.7984 15.99 28.5644 16.206 28.2764 16.362C27.9884 16.506 27.6644 16.578 27.3044 16.578C27.0524 16.578 26.8184 16.536 26.6024 16.452C26.3984 16.356 26.2364 16.224 26.1164 16.056C25.9964 15.876 25.9364 15.666 25.9364 15.426ZM25.0364 12.06C25.1564 11.976 25.3424 11.874 25.5944 11.754C25.8464 11.634 26.1464 11.532 26.4944 11.448C26.8424 11.364 27.2084 11.322 27.5924 11.322C27.8444 11.322 28.0724 11.346 28.2764 11.394C28.4804 11.442 28.6544 11.52 28.7984 11.628C28.9544 11.736 29.0684 11.874 29.1404 12.042C29.2124 12.198 29.2484 12.39 29.2484 12.618V18H31.4984V12.132C31.4984 11.568 31.3424 11.094 31.0304 10.71C30.7184 10.314 30.2864 10.014 29.7344 9.81C29.1824 9.606 28.5524 9.504 27.8444 9.504C27.0764 9.504 26.3804 9.612 25.7564 9.828C25.1324 10.032 24.6044 10.248 24.1724 10.476L25.0364 12.06ZM40.2731 3.96V18H42.6131V3.96H40.2731ZM33.4691 13.86C33.4691 14.772 33.6551 15.552 34.0271 16.2C34.3991 16.848 34.8911 17.34 35.5031 17.676C36.1151 18.012 36.7631 18.18 37.4471 18.18C38.1431 18.18 38.7551 18.006 39.2831 17.658C39.8231 17.31 40.2431 16.812 40.5431 16.164C40.8551 15.516 41.0111 14.748 41.0111 13.86C41.0111 12.96 40.8551 12.192 40.5431 11.556C40.2431 10.908 39.8231 10.41 39.2831 10.062C38.7551 9.714 38.1431 9.54 37.4471 9.54C36.7631 9.54 36.1151 9.708 35.5031 10.044C34.8911 10.38 34.3991 10.872 34.0271 11.52C33.6551 12.156 33.4691 12.936 33.4691 13.86ZM35.8811 13.86C35.8811 13.368 35.9831 12.942 36.1871 12.582C36.3911 12.222 36.6671 11.946 37.0151 11.754C37.3631 11.562 37.7351 11.466 38.1311 11.466C38.4791 11.466 38.8151 11.562 39.1391 11.754C39.4751 11.934 39.7451 12.204 39.9491 12.564C40.1651 12.924 40.2731 13.356 40.2731 13.86C40.2731 14.364 40.1651 14.796 39.9491 15.156C39.7451 15.516 39.4751 15.792 39.1391 15.984C38.8151 16.164 38.4791 16.254 38.1311 16.254C37.7351 16.254 37.3631 16.158 37.0151 15.966C36.6671 15.774 36.3911 15.498 36.1871 15.138C35.9831 14.778 35.8811 14.352 35.8811 13.86ZM53.9597 10.926L57.6137 16.83L61.2677 10.926L62.0777 18H64.7597L62.8877 4.77L57.6137 12.906L52.3397 4.77L50.4677 18H53.1497L53.9597 10.926ZM66.3655 13.86C66.3655 14.712 66.5635 15.468 66.9595 16.128C67.3675 16.776 67.9135 17.28 68.5975 17.64C69.2935 18 70.0795 18.18 70.9555 18.18C71.8315 18.18 72.6115 18 73.2955 17.64C73.9915 17.28 74.5375 16.776 74.9335 16.128C75.3415 15.468 75.5455 14.712 75.5455 13.86C75.5455 12.996 75.3415 12.24 74.9335 11.592C74.5375 10.944 73.9915 10.44 73.2955 10.08C72.6115 9.72 71.8315 9.54 70.9555 9.54C70.0795 9.54 69.2935 9.72 68.5975 10.08C67.9135 10.44 67.3675 10.944 66.9595 11.592C66.5635 12.24 66.3655 12.996 66.3655 13.86ZM68.7415 13.86C68.7415 13.392 68.8375 12.978 69.0295 12.618C69.2335 12.258 69.5035 11.982 69.8395 11.79C70.1755 11.598 70.5475 11.502 70.9555 11.502C71.3635 11.502 71.7355 11.598 72.0715 11.79C72.4075 11.982 72.6715 12.258 72.8635 12.618C73.0675 12.978 73.1695 13.392 73.1695 13.86C73.1695 14.328 73.0675 14.742 72.8635 15.102C72.6715 15.45 72.4075 15.726 72.0715 15.93C71.7355 16.122 71.3635 16.218 70.9555 16.218C70.5475 16.218 70.1755 16.122 69.8395 15.93C69.5035 15.726 69.2335 15.45 69.0295 15.102C68.8375 14.742 68.7415 14.328 68.7415 13.86ZM79.9406 9.72H77.6546V18H79.9406V9.72ZM82.3706 12.15L83.4326 10.17C83.2646 9.954 83.0426 9.792 82.7666 9.684C82.5026 9.576 82.2206 9.522 81.9206 9.522C81.4886 9.522 81.0686 9.678 80.6606 9.99C80.2526 10.29 79.9226 10.698 79.6706 11.214C79.4186 11.718 79.2926 12.3 79.2926 12.96L79.9406 13.608C79.9406 13.212 79.9886 12.876 80.0846 12.6C80.1926 12.312 80.3486 12.09 80.5526 11.934C80.7566 11.778 81.0026 11.7 81.2906 11.7C81.5306 11.7 81.7286 11.742 81.8846 11.826C82.0526 11.898 82.2146 12.006 82.3706 12.15ZM88.6706 18.18C89.6666 18.18 90.5186 17.988 91.2266 17.604C91.9466 17.208 92.5226 16.62 92.9546 15.84L90.9206 15.21C90.6806 15.606 90.3746 15.906 90.0026 16.11C89.6426 16.302 89.2046 16.398 88.6886 16.398C88.2326 16.398 87.8426 16.296 87.5186 16.092C87.1946 15.888 86.9486 15.594 86.7806 15.21C86.6246 14.826 86.5466 14.358 86.5466 13.806C86.5586 13.23 86.6426 12.75 86.7986 12.366C86.9666 11.97 87.2006 11.676 87.5006 11.484C87.8126 11.28 88.1966 11.178 88.6526 11.178C89.0246 11.178 89.3486 11.262 89.6246 11.43C89.9006 11.598 90.1106 11.826 90.2546 12.114C90.4106 12.402 90.4886 12.75 90.4886 13.158C90.4886 13.242 90.4646 13.35 90.4166 13.482C90.3806 13.602 90.3386 13.698 90.2906 13.77L90.9206 12.942H85.5386V14.382H92.9546C92.9666 14.31 92.9726 14.214 92.9726 14.094C92.9846 13.974 92.9906 13.86 92.9906 13.752C92.9906 12.864 92.8226 12.108 92.4866 11.484C92.1506 10.848 91.6586 10.368 91.0106 10.044C90.3746 9.708 89.6006 9.54 88.6886 9.54C87.7766 9.54 86.9846 9.72 86.3126 10.08C85.6406 10.428 85.1186 10.926 84.7466 11.574C84.3866 12.21 84.2066 12.972 84.2066 13.86C84.2066 14.736 84.3866 15.498 84.7466 16.146C85.1186 16.782 85.6406 17.28 86.3126 17.64C86.9846 18 87.7706 18.18 88.6706 18.18Z" fill="#4D5053"/>
<path d="M105.929 11.4353L119.653 11.2984M114.548 4.91125L121.071 11.4342L114.416 18.0886" stroke="black" stroke-width="2" stroke-linecap="square" stroke-linejoin="round"/>
</svg>
